<mxfile host="app.diagrams.net" modified="2020-11-23T09:42:43.294Z" agent="5.0 (Windows NT 10.0; Win64; x64) AppleWebKit/537.36 (KHTML, like Gecko) Chrome/87.0.4280.66 Safari/537.36" etag="PsJgc4DlcAK9uxyc7avz" version="13.10.1" type="github">
  <diagram id="6a731a19-8d31-9384-78a2-239565b7b9f0" name="Page-1">
    <mxGraphModel dx="1021" dy="566" grid="1" gridSize="10" guides="1" tooltips="1" connect="1" arrows="1" fold="1" page="1" pageScale="1" pageWidth="1169" pageHeight="827" background="#ffffff" math="0" shadow="0">
      <root>
        <mxCell id="0" />
        <mxCell id="1" parent="0" />
        <mxCell id="2" value="开始" style="shape=mxgraph.flowchart.terminator;strokeWidth=2;gradientColor=none;gradientDirection=north;fontStyle=0;html=1;" parent="1" vertex="1">
          <mxGeometry x="265" y="20" width="120" height="30" as="geometry" />
        </mxCell>
        <mxCell id="7" style="fontStyle=1;strokeColor=#003366;strokeWidth=1;html=1;entryX=0.5;entryY=0;entryDx=0;entryDy=0;entryPerimeter=0;" parent="1" source="2" target="WvBymIajzzVQ_M8hJ8Aq-62" edge="1">
          <mxGeometry relative="1" as="geometry">
            <mxPoint x="322.1052631578948" y="130" as="targetPoint" />
          </mxGeometry>
        </mxCell>
        <mxCell id="WvBymIajzzVQ_M8hJ8Aq-55" value="标题：专升本XX中的主要内容和标记突出点&lt;br&gt;附标题：发一下试一试，有人需要就陆续发的，表情包+笔记的内容主体&lt;br&gt;内容要求：电子档的学习笔记，笔记要做标记，突出笔记的实用性" style="rounded=0;whiteSpace=wrap;html=1;align=left;" vertex="1" parent="1">
          <mxGeometry x="570" y="314" width="210" height="95" as="geometry" />
        </mxCell>
        <mxCell id="WvBymIajzzVQ_M8hJ8Aq-65" style="edgeStyle=orthogonalEdgeStyle;rounded=0;orthogonalLoop=1;jettySize=auto;html=1;exitX=0.5;exitY=1;exitDx=0;exitDy=0;" edge="1" parent="1" source="WvBymIajzzVQ_M8hJ8Aq-57" target="WvBymIajzzVQ_M8hJ8Aq-64">
          <mxGeometry relative="1" as="geometry" />
        </mxCell>
        <mxCell id="WvBymIajzzVQ_M8hJ8Aq-90" style="edgeStyle=orthogonalEdgeStyle;rounded=0;orthogonalLoop=1;jettySize=auto;html=1;exitX=1;exitY=0.5;exitDx=0;exitDy=0;entryX=0;entryY=0.579;entryDx=0;entryDy=0;entryPerimeter=0;" edge="1" parent="1" source="WvBymIajzzVQ_M8hJ8Aq-57" target="WvBymIajzzVQ_M8hJ8Aq-55">
          <mxGeometry relative="1" as="geometry">
            <Array as="points">
              <mxPoint x="500" y="170" />
              <mxPoint x="500" y="369" />
            </Array>
          </mxGeometry>
        </mxCell>
        <mxCell id="WvBymIajzzVQ_M8hJ8Aq-57" value="第一天" style="ellipse;whiteSpace=wrap;html=1;" vertex="1" parent="1">
          <mxGeometry x="272.5" y="150" width="105" height="40" as="geometry" />
        </mxCell>
        <mxCell id="WvBymIajzzVQ_M8hJ8Aq-63" style="edgeStyle=orthogonalEdgeStyle;rounded=0;orthogonalLoop=1;jettySize=auto;html=1;exitX=0.5;exitY=1;exitDx=0;exitDy=0;exitPerimeter=0;" edge="1" parent="1" source="WvBymIajzzVQ_M8hJ8Aq-62" target="WvBymIajzzVQ_M8hJ8Aq-57">
          <mxGeometry relative="1" as="geometry" />
        </mxCell>
        <mxCell id="WvBymIajzzVQ_M8hJ8Aq-62" value="昵称：XX学长/学姐（专升本）" style="shape=mxgraph.flowchart.terminator;strokeWidth=2;gradientColor=none;gradientDirection=north;fontStyle=0;html=1;" vertex="1" parent="1">
          <mxGeometry x="225" y="80" width="200" height="30" as="geometry" />
        </mxCell>
        <mxCell id="WvBymIajzzVQ_M8hJ8Aq-72" style="edgeStyle=orthogonalEdgeStyle;rounded=0;orthogonalLoop=1;jettySize=auto;html=1;exitX=0.5;exitY=1;exitDx=0;exitDy=0;entryX=0.5;entryY=0;entryDx=0;entryDy=0;" edge="1" parent="1" source="WvBymIajzzVQ_M8hJ8Aq-64" target="WvBymIajzzVQ_M8hJ8Aq-71">
          <mxGeometry relative="1" as="geometry" />
        </mxCell>
        <mxCell id="WvBymIajzzVQ_M8hJ8Aq-91" style="edgeStyle=orthogonalEdgeStyle;rounded=0;orthogonalLoop=1;jettySize=auto;html=1;exitX=1;exitY=0.5;exitDx=0;exitDy=0;entryX=0;entryY=0.5;entryDx=0;entryDy=0;" edge="1" parent="1" source="WvBymIajzzVQ_M8hJ8Aq-64" target="WvBymIajzzVQ_M8hJ8Aq-84">
          <mxGeometry relative="1" as="geometry">
            <Array as="points">
              <mxPoint x="450" y="255" />
              <mxPoint x="450" y="472" />
            </Array>
          </mxGeometry>
        </mxCell>
        <mxCell id="WvBymIajzzVQ_M8hJ8Aq-64" value="第二天" style="ellipse;whiteSpace=wrap;html=1;" vertex="1" parent="1">
          <mxGeometry x="272.5" y="235" width="105" height="40" as="geometry" />
        </mxCell>
        <mxCell id="WvBymIajzzVQ_M8hJ8Aq-68" style="edgeStyle=orthogonalEdgeStyle;rounded=0;orthogonalLoop=1;jettySize=auto;html=1;exitX=1;exitY=0.5;exitDx=0;exitDy=0;" edge="1" parent="1" target="WvBymIajzzVQ_M8hJ8Aq-69" source="WvBymIajzzVQ_M8hJ8Aq-55">
          <mxGeometry relative="1" as="geometry">
            <mxPoint x="790" y="371.5" as="sourcePoint" />
          </mxGeometry>
        </mxCell>
        <mxCell id="WvBymIajzzVQ_M8hJ8Aq-69" value="至少6到8张笔记截图" style="rounded=0;whiteSpace=wrap;html=1;align=left;" vertex="1" parent="1">
          <mxGeometry x="860" y="346.5" width="130" height="30" as="geometry" />
        </mxCell>
        <mxCell id="WvBymIajzzVQ_M8hJ8Aq-81" style="edgeStyle=orthogonalEdgeStyle;rounded=0;orthogonalLoop=1;jettySize=auto;html=1;exitX=0.5;exitY=1;exitDx=0;exitDy=0;" edge="1" parent="1" source="WvBymIajzzVQ_M8hJ8Aq-71" target="WvBymIajzzVQ_M8hJ8Aq-74">
          <mxGeometry relative="1" as="geometry" />
        </mxCell>
        <mxCell id="WvBymIajzzVQ_M8hJ8Aq-92" style="edgeStyle=orthogonalEdgeStyle;rounded=0;orthogonalLoop=1;jettySize=auto;html=1;exitX=1;exitY=0.5;exitDx=0;exitDy=0;entryX=0;entryY=0.5;entryDx=0;entryDy=0;" edge="1" parent="1" source="WvBymIajzzVQ_M8hJ8Aq-71" target="WvBymIajzzVQ_M8hJ8Aq-84">
          <mxGeometry relative="1" as="geometry">
            <Array as="points">
              <mxPoint x="420" y="339" />
              <mxPoint x="420" y="472" />
            </Array>
          </mxGeometry>
        </mxCell>
        <mxCell id="WvBymIajzzVQ_M8hJ8Aq-71" value="第三天" style="ellipse;whiteSpace=wrap;html=1;" vertex="1" parent="1">
          <mxGeometry x="272.5" y="319" width="105" height="40" as="geometry" />
        </mxCell>
        <mxCell id="WvBymIajzzVQ_M8hJ8Aq-83" style="edgeStyle=orthogonalEdgeStyle;rounded=0;orthogonalLoop=1;jettySize=auto;html=1;exitX=0.5;exitY=1;exitDx=0;exitDy=0;entryX=0.5;entryY=0;entryDx=0;entryDy=0;" edge="1" parent="1" source="WvBymIajzzVQ_M8hJ8Aq-73" target="WvBymIajzzVQ_M8hJ8Aq-75">
          <mxGeometry relative="1" as="geometry" />
        </mxCell>
        <mxCell id="WvBymIajzzVQ_M8hJ8Aq-94" style="edgeStyle=orthogonalEdgeStyle;rounded=0;orthogonalLoop=1;jettySize=auto;html=1;exitX=1;exitY=0.5;exitDx=0;exitDy=0;entryX=0;entryY=0.75;entryDx=0;entryDy=0;" edge="1" parent="1" source="WvBymIajzzVQ_M8hJ8Aq-73" target="WvBymIajzzVQ_M8hJ8Aq-55">
          <mxGeometry relative="1" as="geometry">
            <Array as="points">
              <mxPoint x="500" y="509" />
              <mxPoint x="500" y="385" />
            </Array>
          </mxGeometry>
        </mxCell>
        <mxCell id="WvBymIajzzVQ_M8hJ8Aq-73" value="第五天" style="ellipse;whiteSpace=wrap;html=1;flipH=1;flipV=1;" vertex="1" parent="1">
          <mxGeometry x="272" y="489" width="105" height="40" as="geometry" />
        </mxCell>
        <mxCell id="WvBymIajzzVQ_M8hJ8Aq-82" style="edgeStyle=orthogonalEdgeStyle;rounded=0;orthogonalLoop=1;jettySize=auto;html=1;exitX=0.5;exitY=1;exitDx=0;exitDy=0;entryX=0.5;entryY=0;entryDx=0;entryDy=0;" edge="1" parent="1" source="WvBymIajzzVQ_M8hJ8Aq-74" target="WvBymIajzzVQ_M8hJ8Aq-73">
          <mxGeometry relative="1" as="geometry" />
        </mxCell>
        <mxCell id="WvBymIajzzVQ_M8hJ8Aq-93" style="edgeStyle=orthogonalEdgeStyle;rounded=0;orthogonalLoop=1;jettySize=auto;html=1;exitX=1;exitY=0.5;exitDx=0;exitDy=0;" edge="1" parent="1" source="WvBymIajzzVQ_M8hJ8Aq-74" target="WvBymIajzzVQ_M8hJ8Aq-55">
          <mxGeometry relative="1" as="geometry">
            <Array as="points">
              <mxPoint x="474" y="424" />
              <mxPoint x="474" y="350" />
            </Array>
          </mxGeometry>
        </mxCell>
        <mxCell id="WvBymIajzzVQ_M8hJ8Aq-74" value="第四天" style="ellipse;whiteSpace=wrap;html=1;flipH=1;flipV=1;" vertex="1" parent="1">
          <mxGeometry x="272.5" y="404" width="105" height="40" as="geometry" />
        </mxCell>
        <mxCell id="WvBymIajzzVQ_M8hJ8Aq-88" style="edgeStyle=orthogonalEdgeStyle;rounded=0;orthogonalLoop=1;jettySize=auto;html=1;exitX=0.5;exitY=1;exitDx=0;exitDy=0;" edge="1" parent="1" source="WvBymIajzzVQ_M8hJ8Aq-75" target="WvBymIajzzVQ_M8hJ8Aq-77">
          <mxGeometry relative="1" as="geometry" />
        </mxCell>
        <mxCell id="WvBymIajzzVQ_M8hJ8Aq-95" style="edgeStyle=orthogonalEdgeStyle;rounded=0;orthogonalLoop=1;jettySize=auto;html=1;exitX=1;exitY=0.5;exitDx=0;exitDy=0;entryX=0;entryY=0.874;entryDx=0;entryDy=0;entryPerimeter=0;" edge="1" parent="1" source="WvBymIajzzVQ_M8hJ8Aq-75" target="WvBymIajzzVQ_M8hJ8Aq-55">
          <mxGeometry relative="1" as="geometry">
            <Array as="points">
              <mxPoint x="530" y="593" />
              <mxPoint x="530" y="397" />
            </Array>
          </mxGeometry>
        </mxCell>
        <mxCell id="WvBymIajzzVQ_M8hJ8Aq-75" value="第六天" style="ellipse;whiteSpace=wrap;html=1;flipH=1;flipV=1;" vertex="1" parent="1">
          <mxGeometry x="272.5" y="573" width="105" height="40" as="geometry" />
        </mxCell>
        <mxCell id="WvBymIajzzVQ_M8hJ8Aq-96" style="edgeStyle=orthogonalEdgeStyle;rounded=0;orthogonalLoop=1;jettySize=auto;html=1;exitX=1;exitY=0.5;exitDx=0;exitDy=0;entryX=0;entryY=0.5;entryDx=0;entryDy=0;" edge="1" parent="1" source="WvBymIajzzVQ_M8hJ8Aq-77" target="WvBymIajzzVQ_M8hJ8Aq-55">
          <mxGeometry relative="1" as="geometry">
            <Array as="points">
              <mxPoint x="550" y="678" />
              <mxPoint x="550" y="362" />
            </Array>
          </mxGeometry>
        </mxCell>
        <mxCell id="WvBymIajzzVQ_M8hJ8Aq-77" value="第七天" style="ellipse;whiteSpace=wrap;html=1;flipH=1;flipV=1;" vertex="1" parent="1">
          <mxGeometry x="272.5" y="658" width="105" height="40" as="geometry" />
        </mxCell>
        <mxCell id="WvBymIajzzVQ_M8hJ8Aq-87" style="edgeStyle=orthogonalEdgeStyle;rounded=0;orthogonalLoop=1;jettySize=auto;html=1;exitX=1;exitY=0.5;exitDx=0;exitDy=0;entryX=0;entryY=0.5;entryDx=0;entryDy=0;" edge="1" parent="1" source="WvBymIajzzVQ_M8hJ8Aq-84" target="WvBymIajzzVQ_M8hJ8Aq-86">
          <mxGeometry relative="1" as="geometry" />
        </mxCell>
        <mxCell id="WvBymIajzzVQ_M8hJ8Aq-84" value="标题：专升本XX中的主要内容和标记突出点&lt;br&gt;附标题：XX划线的内容，主要讲的是XX，表情包+笔记的内容主体&lt;br&gt;内容要求：实务笔记，可以拍照的，上传几张" style="rounded=0;whiteSpace=wrap;html=1;align=left;" vertex="1" parent="1">
          <mxGeometry x="570" y="424" width="210" height="95" as="geometry" />
        </mxCell>
        <mxCell id="WvBymIajzzVQ_M8hJ8Aq-86" value="至少2到4张笔记截图" style="rounded=0;whiteSpace=wrap;html=1;align=left;" vertex="1" parent="1">
          <mxGeometry x="860" y="456.5" width="130" height="30" as="geometry" />
        </mxCell>
        <mxCell id="WvBymIajzzVQ_M8hJ8Aq-98" value="&lt;span&gt;第一周：以学习笔记为主，照片内容要规范/简洁&lt;/span&gt;" style="rounded=1;whiteSpace=wrap;html=1;fontSize=24;align=center;" vertex="1" parent="1">
          <mxGeometry x="720" y="170" width="280" height="60" as="geometry" />
        </mxCell>
      </root>
    </mxGraphModel>
  </diagram>
</mxfile>
